<?xml version="1.0" ?><svg viewBox="0 0 32 32" xmlns="http://www.w3.org/2000/svg"><title/><g id="dna"><path d="M30.71,10.63,26,6a1,1,0,0,0-1.41,1.41l3.89,3.9a5.42,5.42,0,0,1-1.71.79L23.37,8.63A1,1,0,1,0,22,10L24,12.1a5.58,5.58,0,0,1-2.65-9.39,1,1,0,0,0,0-1.42,1,1,0,0,0-1.41,0A7.62,7.62,0,0,0,18,8.68,7.57,7.57,0,0,0,8.68,18a7.59,7.59,0,0,0-3.18-.17h0A7.56,7.56,0,0,0,1.29,20a1,1,0,0,0-.29.71,1,1,0,0,0,.29.7L6,26a1,1,0,1,0,1.41-1.41l-3.89-3.9a5.42,5.42,0,0,1,1.71-.79l3.44,3.43a1,1,0,0,0,1.41,0A1,1,0,0,0,10,22L8,19.9a5.58,5.58,0,0,1,2.65,9.39A1,1,0,0,0,12,30.71a7.62,7.62,0,0,0,2-7.39,7.62,7.62,0,0,0,2,.28A7.57,7.57,0,0,0,23.32,14a7.66,7.66,0,0,0,2,.27A7.59,7.59,0,0,0,30.71,12a1,1,0,0,0,.29-.71A1,1,0,0,0,30.71,10.63ZM20.6,19.18,12.82,11.4a5.36,5.36,0,0,1,1.72-.78l6.84,6.84A5.36,5.36,0,0,1,20.6,19.18Zm-3.14,2.2-6.84-6.84a5.36,5.36,0,0,1,.78-1.72l7.78,7.78A5.57,5.57,0,0,1,17.46,21.38Zm-6.88-4.06,4.09,4.1A5.61,5.61,0,0,1,12,20,5.45,5.45,0,0,1,10.58,17.32Zm10.84-2.64-4.1-4.1a5.45,5.45,0,0,1,4.1,4.1Z"/></g></svg>